<?xml version="1.0" encoding="utf-8"?>
<!-- Generator: Adobe Illustrator 21.0.0, SVG Export Plug-In . SVG Version: 6.00 Build 0)  -->
<svg version="1.1" id="Layer_1" xmlns="http://www.w3.org/2000/svg" xmlns:xlink="http://www.w3.org/1999/xlink" x="0px" y="0px"
	 viewBox="0 0 135 154.3" style="enable-background:new 0 0 135 154.3;" xml:space="preserve">
<style type="text/css">
	.st0{fill:#FFFFFF;}
</style>
<path class="st0" d="M135,63.3c-13.3,0-26.2-4.1-37-11.8v53.9c0,27.1-22,49-49,49s-49-22-49-49s22-49,49-49c2.2,0,4.5,0.2,6.7,0.5
	v27.1c-11.9-3.7-24.5,2.9-28.2,14.7s2.9,24.5,14.7,28.2c11.9,3.7,24.5-2.9,28.2-14.7c0.7-2.2,1-4.5,1-6.8V0H98
	c0,2.2,0.2,4.5,0.6,6.7l0,0c1.9,10,7.7,18.7,16.3,24.2c6,4,13,6.1,20.2,6.1V63.3z"/>
</svg>
